# xmcd CD database file
#
# Track frame offsets:
#	150
#	10421
#	25742
#	35896
#	46519
#	58749
#	70116
#	85398
#	98460
#	107954
#	120975
#	130171
#
# Disc length: 1866 seconds
#
# Revision: 0
# Processed by: cddbd v1.5.2PL0 Copyright (c) Steve Scherf et al.
# Submitted via: CDex 1.70beta2
#
DISCID=9507480c
DTITLE=TDC-2 - Truck Drivin' Classics - 2
DYEAR=1900
DGENRE=Country
TTITLE0=01 - Frankie Laine - Sixteen Tons
TTITLE1=02 - Ferlin Husky - Phantom 309
TTITLE2=03 - Faron Young - Hello Walls
TTITLE3=04 - Kitty Wells - Heartbreak U.S.A
TTITLE4=05 - Johnny Paycheck - White Lightning
TTITLE5=06 - Kitty Wells and Roy Drusky - I Walk The Line
TTITLE6=07 - Red Simpson - Hello, I'm A Truck
TTITLE7=08 - Wilma Lee Cooper - Wreck On The Highway
TTITLE8=09 - Dave Dudley - Truck Drivin' Son-Of-A-Gun
TTITLE9=10 - Ace Cannon - Ease On Down The Road
TTITLE10=11 - Skeeter Davis - Goin' Down The Road (Feelin' Bad)
TTITLE11=12 - Tommy Cash and Johnny Cash - Guess Things Happen That Way
EXTD=
EXTT0=
EXTT1=
EXTT2=
EXTT3=
EXTT4=
EXTT5=
EXTT6=
EXTT7=
EXTT8=
EXTT9=
EXTT10=
EXTT11=
PLAYORDER=
